Coordinates
version=1
nRows=13
nColumns=36
inDegrees=yes

Units are S.I. units (second, meters, Newtons, ...)
If the header above contains a line with 'inDegrees', this indicates whether rotational values are in degrees (yes) or radians (no).

endheader
time	pelvis_tilt	pelvis_list	pelvis_rotation	pelvis_tx	pelvis_ty	pelvis_tz	hip_flexion_r	hip_adduction_r	hip_rotation_r	knee_angle_r	knee_angle_r_beta	ankle_angle_r	subtalar_angle_r	mtp_angle_r	hip_flexion_l	hip_adduction_l	hip_rotation_l	knee_angle_l	knee_angle_l_beta	ankle_angle_l	subtalar_angle_l	mtp_angle_l	lumbar_extension	lumbar_bending	lumbar_rotation	arm_flex_r	arm_add_r	arm_rot_r	elbow_flex_r	pro_sup_r	arm_flex_l	arm_add_l	arm_rot_l	elbow_flex_l	pro_sup_l
      1.02000000	     -1.13452491	      1.64734739	      4.78449313	      1.04487918	      1.04041797	     -0.22184605	     27.20039823	     -3.73064819	     -8.29008526	     18.83813395	      0.32878746	     -2.02061850	     -5.62281736	     -7.29450170	     -6.01889233	      7.29145773	     -2.52917827	      0.97111054	      0.01694908	      9.57944576	      8.57712672	     -7.29450170	    -11.59090648	     -1.00433803	     -7.83919277	    -15.23417442	     -3.46845736	    -17.95945629	     33.83348716	    108.22472842	      1.30252486	     -7.59729698	    -17.51356949	     54.59383285	    100.12078136
      1.03000000	     -1.32662307	      1.99146236	      4.96904646	      1.05847050	      1.03795946	     -0.22178859	     27.08357740	     -3.93104514	     -8.74445952	     15.06142565	      0.26287147	     -2.36289388	     -3.08673244	     -7.29964517	     -6.71064821	      7.57911871	     -2.25964407	      1.01870105	      0.01777969	     10.29958777	      8.62052511	     -7.29964517	    -11.40620952	     -1.33625849	     -8.02712414	    -16.15607257	     -3.24007230	    -18.39386401	     33.67730279	    108.35807926	      2.22297728	     -8.27328651	    -17.13373437	     55.89060850	    100.19922146
      1.04000000	     -1.84881099	      2.46353837	      5.08769646	      1.07195924	      1.03486234	     -0.22155948	     27.37688507	     -4.20275533	     -8.82083189	     11.58070560	      0.20212144	     -2.64133799	     -1.01145766	     -7.30144823	     -7.02858549	      8.02572281	     -2.02261223	      1.11230536	      0.01941339	     10.84701003	      8.72594640	     -7.30144823	    -10.85634824	     -1.87974826	     -8.10908638	    -17.11024501	     -3.01025296	    -18.55602080	     33.53749427	    108.30806744	      3.16805852	     -8.84699485	    -16.97254764	     57.10151837	    100.26455994
      1.05000000	     -1.65802343	      2.66051894	      5.20965209	      1.08615892	      1.03259801	     -0.22128947	     26.75484544	     -4.20396814	     -9.75767660	      8.14404427	      0.14214039	     -2.78268265	      2.71629792	     -7.30827502	     -8.21069927	      8.07693174	     -2.12556645	      1.06225473	      0.01853984	     11.77267449	      9.33766572	     -7.30827502	    -11.05848439	     -2.01152135	     -8.20147633	    -18.06427399	     -2.73148633	    -19.38113390	     33.75474811	    108.58147735	      3.98216117	     -9.58471820	    -16.37824156	     58.46380403	    100.37698147
      1.06000000	     -1.86032356	      2.94578156	      5.23400507	      1.10014224	      1.02973232	     -0.22082515	     26.63981606	     -4.21493978	    -10.19620500	      5.09381251	      0.08890380	     -3.01727087	      5.55591422	     -7.31382874	     -8.91207045	      8.26867930	     -2.24720535	      1.10991402	      0.01937165	     12.54429360	      9.78417813	     -7.31382874	    -10.84580369	     -2.30391311	     -8.20634649	    -18.91362050	     -2.48948841	    -19.86766621	     33.80995535	    108.78487752	      4.77936798	    -10.21541210	    -16.01099286	     59.68751030	    100.47360055
      1.07000000	     -2.25277284	      3.25616595	      5.23784804	      1.11406878	      1.02659224	     -0.22024993	     26.77567681	     -4.22254174	    -10.20809301	      2.52601454	      0.04408727	     -3.07647977	      7.66492596	     -7.31568575	     -9.39528591	      8.50702772	     -2.21005232	      1.17578647	      0.02052135	     13.11621622	      9.98065117	     -7.31568575	    -10.40143770	     -2.66173491	     -8.19028341	    -19.69929518	     -2.30922151	    -20.02362546	     33.68336583	    108.77923597	      5.52941355	    -10.75238939	    -15.82896212	     60.85344005	    100.56491538
      1.08000000	     -2.14985052	      3.46246588	      5.24465943	      1.12847113	      1.02409802	     -0.21977449	     26.69316667	     -4.23689973	    -11.83573120	      1.10280835	      0.01924764	     -1.99258935	     11.72698277	     -7.32184385	    -10.41458439	      8.56141337	     -2.66878848	      1.24152108	      0.02166863	     13.91098688	     10.87971886	     -7.32184385	    -10.50288449	     -2.83390169	     -8.27787916	    -20.38086958	     -2.13124036	    -20.53597054	     33.75492304	    108.98753283	      6.13372890	    -11.38598333	    -15.44968326	     62.17375445	    100.69713363
      1.09000000	     -2.33222923	      3.70078774	      5.20812335	      1.14267369	      1.02133023	     -0.21922630	     27.13764244	     -4.29219865	    -13.16210634	      0.59116404	      0.01031776	     -0.57548538	     14.95580166	     -7.32772464	    -11.06603266	      8.69211612	     -2.87893831	      1.39419052	      0.02433322	     14.44609683	     11.34875442	     -7.32772464	    -10.29310801	     -3.08112417	     -8.29138380	    -20.96970868	     -1.99178995	    -20.82885822	     33.63075355	    109.15374123	      6.72466196	    -11.91006098	    -15.26371239	     63.34665535	    100.80373402
      1.10000000	     -2.38750121	      3.84340391	      5.17094061	      1.15708270	      1.01890249	     -0.21857176	     27.37665191	     -4.22331249	    -14.23829846	      0.44564148	      0.00777791	      0.79227844	     17.41182199	     -7.33299275	    -11.81609167	      8.69183361	     -3.07882789	      1.59179485	      0.02778206	     14.83692706	     11.69419531	     -7.33299275	    -10.21515680	     -3.21590845	     -8.35926958	    -21.42595234	     -1.89783581	    -21.00360413	     33.44345310	    109.25840980	      7.20076689	    -12.41785483	    -15.14500278	     64.53340735	    100.90589144
      1.11000000	     -2.42192400	      3.88177473	      5.09604800	      1.17163186	      1.01672958	     -0.21775117	     27.41008603	     -3.96034067	    -14.38734545	      0.40141167	      0.00700596	      1.73844762	     18.16264646	     -7.33483963	    -12.52591065	      8.57151672	     -3.20453738	      1.87373337	      0.03270282	     15.09056919	     11.73242486	     -7.33483963	    -10.15831521	     -3.23962032	     -8.29988064	    -21.83026168	     -1.83403139	    -21.08036885	     33.18602616	    109.25569804	      7.66102861	    -12.83138825	    -15.04364216	     65.63721232	    101.00628233
      1.12000000	     -2.51400688	      3.85649874	      5.10912487	      1.18644400	      1.01485300	     -0.21683899	     27.33911743	     -3.64357551	    -14.34680450	      0.43194793	      0.00753891	      1.93974218	     18.28926773	     -7.33529774	    -13.12111918	      8.34270606	     -3.18445514	      2.23393720	      0.03898956	     15.04479419	     11.74738612	     -7.33529774	     -9.92911026	     -3.21422398	     -8.42420767	    -22.15806018	     -1.75343806	    -21.10703216	     33.03090370	    109.22261646	      8.08934953	    -13.25023138	    -15.12234548	     66.10850969	    101.03104830
      1.13000000	     -2.03886224	      3.57528280	      5.06775248	      1.20171992	      1.01394471	     -0.21584960	     26.46243559	     -2.99332790	    -14.15069035	      0.51064064	      0.00891236	      2.28143891	     18.16952031	     -7.33742877	    -14.14741276	      7.75903609	     -3.63052754	      2.92846690	      0.05111139	     15.14902730	     11.88638462	     -7.33742877	    -10.41121278	     -2.84883004	     -8.54897145	    -22.22949660	     -1.75637136	    -21.20776928	     32.73250406	    109.20826960	      8.09220410	    -13.68785446	    -14.97678407	     67.63523493	    101.15991602
      1.14000000	     -1.85279974	      3.28354471	      5.01956351	      1.21712845	      1.01305824	     -0.21459637	     25.80754775	     -2.29190027	    -13.30398482	      0.61472789	      0.01072903	      1.54605302	     16.69284070	     -7.34398374	    -14.71717538	      7.12511517	     -4.34961236	      3.87252327	      0.06758828	     15.22868347	     12.93694394	     -7.34398374	    -10.51155503	     -2.53380458	     -8.91356219	    -22.16538941	     -1.84305487	    -20.99664234	     32.44845881	    109.32921773	      7.79834294	    -13.96764377	    -15.64502251	     68.93461772	    101.12315503
